<?xml version="1.0" encoding="UTF-8" standalone="no"?>
<svg
   xmlns:dc="http://purl.org/dc/elements/1.1/"
   xmlns:cc="http://creativecommons.org/ns#"
   xmlns:rdf="http://www.w3.org/1999/02/22-rdf-syntax-ns#"
   xmlns:svg="http://www.w3.org/2000/svg"
   xmlns="http://www.w3.org/2000/svg"
   xmlns:xlink="http://www.w3.org/1999/xlink"
   xmlns:sodipodi="http://sodipodi.sourceforge.net/DTD/sodipodi-0.dtd"
   xmlns:inkscape="http://www.inkscape.org/namespaces/inkscape"
   width="108.81694mm"
   height="41.7047mm"
   viewBox="0 0 108.81694 41.7047"
   version="1.1"
   id="svg5483"
   inkscape:export-filename="C:\Users\javie\AMSIMULATION Dropbox\AMS\01.Proyectos_Trabajo\01_LightCoce\03 Dissemination activities\6 Material for SEP website\Logo_big.png"
   inkscape:export-xdpi="186.73564"
   inkscape:export-ydpi="186.73564"
   inkscape:version="1.0.2-2 (e86c870879, 2021-01-15)"
   sodipodi:docname="logo_vec2.svg">
  <defs
     id="defs5477">
    <linearGradient
       inkscape:collect="always"
       xlink:href="#linearGradient4601"
       id="linearGradient5228"
       x1="-237.95198"
       y1="-247.6738"
       x2="-182.36237"
       y2="-221.15729"
       gradientUnits="userSpaceOnUse"
       gradientTransform="matrix(0.26458333,0,0,0.26458333,206.51607,135.49372)" />
    <linearGradient
       inkscape:collect="always"
       id="linearGradient4601">
      <stop
         style="stop-color:#fcb333;stop-opacity:1;"
         offset="0"
         id="stop4597" />
      <stop
         style="stop-color:#970d12;stop-opacity:1"
         offset="1"
         id="stop4599" />
    </linearGradient>
    <linearGradient
       inkscape:collect="always"
       xlink:href="#linearGradient5241"
       id="linearGradient5243"
       x1="-8.3301897"
       y1="-52.42234"
       x2="-2.9981627"
       y2="-44.751698"
       gradientUnits="userSpaceOnUse"
       gradientTransform="translate(176.49475,113.26412)" />
    <linearGradient
       inkscape:collect="always"
       id="linearGradient5241">
      <stop
         style="stop-color:#10a097;stop-opacity:1;"
         offset="0"
         id="stop5237" />
      <stop
         style="stop-color:#092649;stop-opacity:1"
         offset="1"
         id="stop5239" />
    </linearGradient>
    <linearGradient
       inkscape:collect="always"
       xlink:href="#linearGradient5327"
       id="linearGradient5321"
       x1="-88.000015"
       y1="-382"
       x2="-66"
       y2="-322.5"
       gradientUnits="userSpaceOnUse"
       gradientTransform="matrix(0.26458333,0,0,0.26458333,170.89156,156.6578)" />
    <linearGradient
       inkscape:collect="always"
       id="linearGradient5327">
      <stop
         style="stop-color:#000000;stop-opacity:1;"
         offset="0"
         id="stop5323" />
      <stop
         style="stop-color:#dbdbdb;stop-opacity:1"
         offset="1"
         id="stop5325" />
    </linearGradient>
    <clipPath
       id="clip0">
      <rect
         x="336"
         y="188"
         width="358"
         height="144"
         id="rect5557" />
    </clipPath>
  </defs>
  <sodipodi:namedview
     id="base"
     pagecolor="#ffffff"
     bordercolor="#666666"
     borderopacity="1.0"
     inkscape:pageopacity="0.0"
     inkscape:pageshadow="2"
     inkscape:zoom="1.979899"
     inkscape:cx="45.633022"
     inkscape:cy="63.917945"
     inkscape:document-units="mm"
     inkscape:current-layer="layer1"
     inkscape:document-rotation="0"
     showgrid="false"
     fit-margin-top="0"
     fit-margin-left="0"
     fit-margin-right="0"
     fit-margin-bottom="0"
     inkscape:window-width="1920"
     inkscape:window-height="1017"
     inkscape:window-x="-8"
     inkscape:window-y="-8"
     inkscape:window-maximized="1" />
  <metadata
     id="metadata5480">
    <rdf:RDF>
      <cc:Work
         rdf:about="">
        <dc:format>image/svg+xml</dc:format>
        <dc:type
           rdf:resource="http://purl.org/dc/dcmitype/StillImage" />
        <dc:title></dc:title>
      </cc:Work>
    </rdf:RDF>
  </metadata>
  <g
     inkscape:label="Capa 1"
     inkscape:groupmode="layer"
     id="layer1"
     transform="translate(-64.5604,-42.647704)">
    <path
       id="rect5212"
       style="fill:url(#linearGradient5228);fill-opacity:1;fill-rule:nonzero;stroke:none;stroke-width:0.264999;stroke-linecap:round;stroke-miterlimit:4;stroke-dasharray:none;stroke-dashoffset:0;stroke-opacity:1;paint-order:fill markers stroke"
       d="m 148.02876,42.918904 c -1.82719,-0.0342 -3.78916,1.75168 -4.74751,3.51917 l -11.97136,21.92166 c -0.43034,0.79369 -1.43661,2.61844 -1.43661,2.61844 -0.71673,1.36217 -0.86241,1.83609 -0.8692,2.89802 l 0.0879,1.27537 c -0.1014,1.78222 1.68242,2.86028 3.46749,2.86701 l 24.70392,0.0935 c 1.78509,0.007 2.42413,-1.19527 1.43299,-2.67994 l -1.25729,-1.88309 c -0.99114,-1.48466 -0.98116,-2.39201 -2.76624,-2.39933 l -16.50235,-0.0677 -0.0295,-0.0506 a 0.86287551,0.8084228 0 0 1 -0.19172,0.0207 0.86287551,0.8084228 0 0 1 -0.86299,-0.80873 0.86287551,0.8084228 0 0 1 0.20825,-0.52658 0.86287551,0.8084228 0 0 1 5.3e-4,-5.3e-4 l 0.54881,-1.09813 c 0.0175,-0.0443 0.0378,-0.0892 0.0625,-0.13487 l 0.0636,-0.11731 0.31832,-0.63665 c 0.03,-0.0599 0.0706,-0.11667 0.11834,-0.16847 1.7e-4,-1.7e-4 2.7e-4,-2.6e-4 5.3e-4,-5.3e-4 l 12.48348,-23.00686 c 0.9589,-1.7672 -1.03465,-1.60036 -2.86184,-1.63453 z" />
    <path
       id="rect5231"
       style="fill:url(#linearGradient5243);fill-opacity:1;fill-rule:nonzero;stroke:none;stroke-width:0.264008;stroke-linecap:round;stroke-miterlimit:4;stroke-dasharray:none;stroke-dashoffset:0;stroke-opacity:1;paint-order:fill markers stroke"
       d="m 154.1364,42.648124 c -0.50007,-0.012 -1.22939,0.72015 -1.49397,1.19476 l -14.10301,25.29871 c -0.32573,0.58432 -0.0494,1.05472 0.6196,1.05472 h 6.06268 c 0.66898,0 1.45018,-0.48192 1.79576,-1.05472 l 7.3458,-12.17548 -0.005,5.3e-4 0.24184,-0.39223 0.28009,-0.46457 c 0.002,2.7e-4 0.004,2.7e-4 0.006,5.3e-4 l 0.1142,-0.18552 0.0165,-0.002 a 1.1244791,1.1244791 0 0 1 0.91157,-0.46715 1.1244791,1.1244791 0 0 1 1.05937,0.74879 l 12.53102,20.64163 c 0.39008,0.66898 1.3182,2.14565 1.72754,1.48828 l 1.83503,-2.94659 c 0.40934,-0.65736 0.38205,-1.24046 -0.008,-1.90944 l -5.53662,-9.33741 -12.82867,-21.04316 -0.27027,-0.31006 c -0.0823,-0.0944 -0.18504,-0.13704 -0.30024,-0.14004 z" />
    <path
       id="rect5264"
       style="fill:url(#linearGradient5321);fill-opacity:1;fill-rule:nonzero;stroke:none;stroke-width:0.564301;stroke-linecap:round;stroke-miterlimit:4;stroke-dasharray:none;stroke-dashoffset:0;stroke-opacity:1;paint-order:fill markers stroke"
       d="m 155.73682,57.313374 c -0.0475,-5.3e-4 -0.0969,0.008 -0.14676,0.0243 -0.22604,0.0756 -0.73202,0.74524 -0.82269,1.03405 l -1.61282,2.7497 c -0.21051,0.4182 -0.57933,0.8243 -0.99736,1.68155 l 8.98292,14.3583 c -0.002,5.3e-4 -0.0223,0.008 -0.0227,0.008 0,0 -0.0109,0.0297 -0.0119,0.0331 0.28306,0.25032 0.4439,0.60158 0.4439,0.96945 0,0.70904 -0.58613,1.28624 -1.32188,1.31982 v 0.0419 h -4.29948 v -0.0413 l -23.36034,-0.0181 c -1.47159,-0.004 -0.91252,0.2819 -0.98856,1.09296 0,0 2.97302,3.74383 4.31343,3.7455 l 32.05747,0.0398 c 1.03991,10e-4 2.0738,-0.68127 2.40141,-1.59783 0.52488,-0.71349 0.31286,-1.68767 -0.36329,-2.73317 l -12.27315,-20.15846 c -0.4755,-0.73524 -1.08622,-1.77734 -1.60714,-2.40347 l -0.002,-0.003 c -0.0686,-0.11305 -0.24267,-0.14156 -0.36897,-0.14315 z"
       sodipodi:nodetypes="csccccccsccccccccccccccc" />
    <ellipse
       style="fill:#ffffff;fill-opacity:1;fill-rule:nonzero;stroke:none;stroke-width:0.118174;stroke-linecap:round;stroke-miterlimit:4;stroke-dasharray:none;stroke-dashoffset:0;stroke-opacity:1;paint-order:fill markers stroke"
       id="path5337"
       cx="160.16133"
       cy="78.144142"
       rx="1.3890624"
       ry="1.3229166" />
    <ellipse
       style="fill:#ffffff;fill-opacity:1;fill-rule:nonzero;stroke:none;stroke-width:0.20032;stroke-linecap:round;stroke-miterlimit:4;stroke-dasharray:none;stroke-dashoffset:0;stroke-opacity:1;paint-order:fill markers stroke"
       id="path5406"
       cx="166.24678"
       cy="58.23423"
       rx="0.49609375"
       ry="0.52916664" />
    <text
       xml:space="preserve"
       style="font-style:normal;font-weight:normal;font-size:7.76111px;line-height:1.25;font-family:sans-serif;fill:#1f4e79;fill-opacity:1;stroke:none;stroke-width:0.264583"
       x="69.905792"
       y="55.866802"
       id="text5587"><tspan
         sodipodi:role="line"
         id="tspan5585"
         x="69.905792"
         y="55.866802"
         style="font-style:normal;font-variant:normal;font-weight:bold;font-stretch:normal;font-size:7.76111px;font-family:'Franklin Gothic Heavy';-inkscape-font-specification:'Franklin Gothic Heavy,  Bold';fill:#1f4e79;fill-opacity:1;stroke-width:0.264583">ADVANCED</tspan><tspan
         sodipodi:role="line"
         x="69.905792"
         y="65.573738"
         style="font-style:normal;font-variant:normal;font-weight:bold;font-stretch:normal;font-size:7.76111px;font-family:'Franklin Gothic Heavy';-inkscape-font-specification:'Franklin Gothic Heavy,  Bold';fill:#1f4e79;fill-opacity:1;stroke-width:0.264583"
         id="tspan5589">MATERIAL</tspan><tspan
         sodipodi:role="line"
         x="69.905792"
         y="75.28067"
         style="font-style:normal;font-variant:normal;font-weight:bold;font-stretch:normal;font-size:7.76111px;font-family:'Franklin Gothic Heavy';-inkscape-font-specification:'Franklin Gothic Heavy,  Bold';fill:#1f4e79;fill-opacity:1;stroke-width:0.264583"
         id="tspan5591">SIMULATION</tspan></text>
  </g>
</svg>
